<svg width="121" height="121" viewBox="0 0 121 121" fill="none" xmlns="http://www.w3.org/2000/svg">
<path d="M119.706 60.4917C119.706 93.2962 92.9786 119.892 60.0054 119.892C27.0322 119.892 0.304653 93.2962 0.304653 60.4917C0.304653 27.6872 27.0322 1.0914 60.0054 1.0914C92.9786 1.0914 119.706 27.6872 119.706 60.4917Z" fill="#032EA2" stroke="black" stroke-width="0.598565"/>
<path d="M105.943 60.4316C105.943 85.7064 85.3504 106.198 59.9448 106.198C34.5391 106.198 13.9463 85.7064 13.9463 60.4316C13.9463 35.1567 34.5391 14.6649 59.9448 14.6649C85.3504 14.6649 105.943 35.1567 105.943 60.4316Z" fill="#F6F1E2" stroke="black" stroke-width="0.598565"/>
<path d="M96.1543 18.0729C102.351 23.301 107.328 29.8103 110.738 37.1475C114.148 44.4847 115.91 52.4733 115.9 60.5571C115.891 68.6409 114.11 76.6254 110.682 83.9546C107.255 91.2837 102.263 97.7814 96.0538 102.995L92.2526 98.5131C97.8069 93.8493 102.273 88.0368 105.339 81.4805C108.405 74.9241 109.998 67.7816 110.006 60.5502C110.015 53.3188 108.439 46.1725 105.388 39.609C102.338 33.0455 97.8857 27.2226 92.3425 22.5458L96.1543 18.0729Z" fill="#E00025" stroke="black" stroke-width="0.557616"/>
<path d="M23.855 102.91C17.6583 97.6822 12.6816 91.1729 9.27146 83.8357C5.86129 76.4985 4.09964 68.5098 4.1092 60.4261C4.11876 52.3423 5.89931 44.3578 9.32684 37.0286C12.7544 29.6994 17.7465 23.2018 23.9554 17.9882L27.7567 22.4701C22.2024 27.1339 17.7367 32.9463 14.6706 39.5027C11.6045 46.059 10.0117 53.2016 10.0032 60.433C9.99461 67.6643 11.5705 74.8106 14.6211 81.3741C17.6717 87.9376 22.1236 93.7606 27.6668 98.4374L23.855 102.91Z" fill="#E00025" stroke="black" stroke-width="0.557616"/>
<path d="M35.4599 16.2154C35.1906 16.3809 35.1394 16.598 35.3061 16.8665L35.9652 17.9278C36.5196 18.8204 36.3492 19.5418 35.4541 20.0921L33.331 21.3975C32.436 21.9478 31.7113 21.7767 31.1569 20.8841L27.6214 15.191C27.0671 14.2984 27.2374 13.577 28.1325 13.0267L30.2556 11.7213C31.1507 11.171 31.8754 11.3422 32.4297 12.2348L33.0888 13.2961C33.2556 13.5646 33.4736 13.6161 33.7428 13.4505L32.3019 14.3364C31.9308 14.5646 31.6303 14.4936 31.4005 14.1235L31.2112 13.8187C31.0647 13.5829 30.8733 13.5377 30.6367 13.6831L29.7253 14.2434C29.4888 14.3889 29.4438 14.5795 29.5902 14.8153L32.3754 19.3001C32.5219 19.5359 32.7134 19.5812 32.9499 19.4357L33.8613 18.8754C34.0978 18.73 34.1428 18.5393 33.9964 18.3035L33.8071 17.9987C33.5772 17.6286 33.6479 17.3294 34.019 17.1013L35.4599 16.2154Z" fill="#ECECEC"/>
<path d="M44.4094 15.9435L40.1789 17.7004C39.1882 18.1101 38.4904 17.8303 38.0853 16.8608L37.2356 14.8272C36.9968 14.2558 37.1201 13.7033 37.6054 13.1697C38.0869 12.7487 38.5683 12.3277 39.0497 11.9067C39.5548 11.4205 39.7126 10.9507 39.5233 10.4975L39.2491 9.84133C39.1421 9.58517 38.9603 9.51014 38.7037 9.61626L37.7387 10.0154C37.4822 10.1216 37.4074 10.3027 37.5144 10.5589L37.6404 10.8604C37.7935 11.2269 37.6725 11.5242 37.2771 11.7525L35.7083 12.4014C36.0003 12.2806 36.0854 12.0744 35.9636 11.7828L35.4819 10.63C35.0834 9.67628 35.3795 8.99452 36.3702 8.58474L38.6495 7.6419C39.6402 7.23212 40.3348 7.50409 40.7333 8.45782L43.7565 15.6936C43.88 15.9892 44.0976 16.0725 44.4094 15.9435ZM41.3016 14.7538L40.4989 12.8326C39.9902 13.288 39.6469 13.6518 39.4691 13.9242C39.2429 14.2581 39.1841 14.5551 39.2928 14.8152L39.567 15.4714C39.674 15.7275 39.8558 15.8026 40.1123 15.6964L41.0774 15.2973C41.3339 15.1912 41.4087 15.01 41.3016 14.7538Z" fill="#ECECEC"/>
<path d="M52.2406 3.98661C51.9355 4.05114 51.8122 4.23004 51.8705 4.52331L51.8986 4.65489L53.7448 13.2948C53.8073 13.5872 53.9931 13.7007 54.3023 13.6353L52.729 13.9681C52.2443 14.0707 51.9582 13.9173 51.8707 13.5079L50.8693 8.82143C50.8202 8.5917 50.7079 8.4954 50.5324 8.53252C50.3987 8.56081 50.2804 8.71244 50.1776 8.98741L49.2026 11.6297L47.2692 9.60268C47.067 9.39224 46.899 9.30117 46.7653 9.32945C46.5856 9.36747 46.5203 9.50134 46.5694 9.73107L47.5708 14.4176C47.6583 14.8269 47.4597 15.0828 46.9749 15.1854L45.4016 15.5182C45.715 15.4519 45.8405 15.2726 45.778 14.9802L43.8974 6.21C43.8308 5.9185 43.6449 5.80501 43.3399 5.86954L44.9069 5.53804C45.12 5.49296 45.2971 5.51443 45.4382 5.60245C45.4931 5.6345 45.6238 5.7553 45.8301 5.96485C46.231 6.36902 47.1718 7.33783 48.6525 8.87129L50.0038 5.10811C50.109 4.82391 50.1781 4.6565 50.2109 4.60589C50.3062 4.45912 50.4604 4.3632 50.6736 4.31811L52.2406 3.98661Z" fill="#ECECEC"/>
<path d="M61.4396 7.32259C61.4519 7.81362 61.2377 8.21629 60.797 8.53061C61.2529 8.82262 61.4871 9.21627 61.4996 9.71158L61.5548 11.9084C61.5673 12.408 61.4276 12.7981 61.1356 13.0788C60.8602 13.342 60.4855 13.4795 60.0116 13.4913L55.477 13.6041C55.7929 13.5963 55.9469 13.4344 55.939 13.1184L55.715 4.20291C55.707 3.88694 55.5451 3.73289 55.2291 3.74075L59.7637 3.62794C60.2377 3.61615 60.6188 3.73485 60.9071 3.98403C61.2128 4.24987 61.3719 4.63044 61.3844 5.12574L61.4396 7.32259ZM59.5644 7.17056L59.5322 5.8896C59.5252 5.61206 59.3829 5.47674 59.1054 5.48365L58.0358 5.51025C57.7582 5.51716 57.623 5.65938 57.6299 5.93692L57.6621 7.21788C57.6691 7.49542 57.8114 7.63074 58.0889 7.62384L59.1585 7.59723C59.436 7.59033 59.5713 7.4481 59.5644 7.17056ZM59.6666 11.2376L59.6344 9.95665C59.6274 9.67911 59.4851 9.54379 59.2076 9.55069L58.138 9.5773C57.8604 9.5842 57.7252 9.72643 57.7321 10.004L57.7643 11.2849C57.7713 11.5625 57.9135 11.6978 58.1911 11.6909L59.2607 11.6643C59.5382 11.6574 59.6735 11.5151 59.6666 11.2376Z" fill="#ECECEC"/>
<path d="M71.125 6.17935L70.1679 12.8575C70.0188 13.8976 69.4241 14.3438 68.3838 14.1962L65.282 13.7561C64.2417 13.6085 63.796 13.0146 63.9451 11.9746L64.9022 5.29641C65.0489 4.27324 65.6423 3.83545 66.6826 3.98305L69.7845 4.42317C70.8248 4.57078 71.2716 5.15617 71.125 6.17935ZM68.4147 11.8581L69.1655 6.6196C69.2049 6.34478 69.0871 6.18787 68.8123 6.14887L67.125 5.90946C66.8501 5.87046 66.693 5.98837 66.6536 6.26319L65.9028 11.5017C65.8634 11.7765 65.9811 11.9334 66.256 11.9724L67.9433 12.2118C68.2182 12.2508 68.3753 12.1329 68.4147 11.8581Z" fill="#ECECEC"/>
<path d="M77.9509 15.1525C77.7986 15.6285 77.5382 15.9515 77.1699 16.1215C76.8231 16.2805 76.4236 16.2883 75.9717 16.1451L71.6475 14.775C71.9488 14.8705 72.1477 14.7677 72.244 14.4667L74.9624 5.97279C75.0588 5.67176 74.9563 5.47351 74.655 5.37804L78.9791 6.74815C79.4311 6.89135 79.7524 7.12756 79.943 7.45679C80.1447 7.80744 80.17 8.21871 80.019 8.6906L77.9509 15.1525ZM76.3862 13.9041L78.0169 8.80894C78.1015 8.54453 78.0115 8.37039 77.7468 8.28653L76.7269 7.96336C76.4622 7.8795 76.2876 7.96978 76.2029 8.2342L74.5723 13.3293C74.4876 13.5937 74.5777 13.7679 74.8423 13.8517L75.8623 14.1749C76.127 14.2588 76.3016 14.1685 76.3862 13.9041Z" fill="#ECECEC"/>
<path d="M85.7726 9.53196C85.4736 9.39516 85.2613 9.46247 85.1359 9.73389L85.0338 9.9549L81.3798 17.8791C81.2544 18.1505 81.3354 18.3519 81.6228 18.4834L79.0593 17.3108C79.3506 17.4441 79.559 17.375 79.6844 17.1036L83.4405 8.95839C83.562 8.6852 83.481 8.48375 83.1974 8.35406L85.7726 9.53196Z" fill="#ECECEC"/>
<path d="M88.4948 22.4645L84.5891 20.0707C83.6759 19.5092 83.4964 18.7821 84.0507 17.8895L85.2135 16.0172C85.5402 15.4911 86.063 15.2686 86.782 15.3496C87.4068 15.4931 88.0316 15.6366 88.6565 15.7801C89.3484 15.9046 89.8239 15.7583 90.083 15.341L90.4582 14.7369C90.6047 14.501 90.5597 14.3104 90.3232 14.165L89.4335 13.618C89.197 13.4726 89.0055 13.5178 88.8591 13.7537L88.6867 14.0313C88.4771 14.3687 88.1637 14.4443 87.7465 14.2579L86.3002 13.3687C86.5694 13.5342 86.7874 13.4828 86.9542 13.2143L87.6133 12.1529C88.1586 11.2749 88.8879 11.1166 89.8012 11.6781L91.9024 12.97C92.8157 13.5315 92.9997 14.2513 92.4543 15.1294L88.3172 21.7912C88.1482 22.0633 88.2074 22.2877 88.4948 22.4645ZM87.6494 19.2597L88.7479 17.4909C88.0791 17.3454 87.5816 17.2802 87.2554 17.2953C86.8508 17.3072 86.5742 17.4329 86.4254 17.6724L86.0502 18.2765C85.9038 18.5124 85.9488 18.703 86.1853 18.8484L87.0749 19.3954C87.3114 19.5408 87.5029 19.4956 87.6494 19.2597Z" fill="#ECECEC"/>
<path d="M84.6422 104.619C84.9114 104.453 84.9627 104.236 84.7959 103.968L84.1368 102.906C83.5825 102.014 83.7529 101.292 84.6479 100.742L86.771 99.4368C87.6661 98.8864 88.3908 99.0576 88.9451 99.9502L92.4807 105.643C93.035 106.536 92.8646 107.257 91.9695 107.808L89.8465 109.113C88.9514 109.663 88.2267 109.492 87.6724 108.599L87.0132 107.538C86.8465 107.27 86.6285 107.218 86.3592 107.384L87.8001 106.498C88.1712 106.27 88.4717 106.341 88.7016 106.711L88.8908 107.016C89.0373 107.251 89.2288 107.297 89.4653 107.151L90.3768 106.591C90.6133 106.445 90.6583 106.255 90.5118 106.019L87.7266 101.534C87.5802 101.298 87.3887 101.253 87.1522 101.398L86.2407 101.959C86.0042 102.104 85.9592 102.295 86.1057 102.531L86.295 102.836C86.5248 103.206 86.4542 103.505 86.083 103.733L84.6422 104.619Z" fill="#ECECEC"/>
<path d="M75.6931 104.891L79.9236 103.134C80.9143 102.724 81.6122 103.004 82.0173 103.973L82.8669 106.007C83.1057 106.578 82.9824 107.131 82.4971 107.665C82.0157 108.086 81.5343 108.507 81.0529 108.928C80.5478 109.414 80.3899 109.883 80.5793 110.337L80.8535 110.993C80.9605 111.249 81.1423 111.324 81.3988 111.218L82.3638 110.819C82.6204 110.713 82.6951 110.532 82.5881 110.275L82.4621 109.974C82.309 109.607 82.4301 109.31 82.8254 109.082L84.3943 108.433C84.1022 108.554 84.0171 108.76 84.139 109.051L84.6206 110.204C85.0191 111.158 84.723 111.84 83.7323 112.249L81.453 113.192C80.4624 113.602 79.7678 113.33 79.3693 112.376L76.346 105.141C76.2225 104.845 76.0049 104.762 75.6931 104.891ZM78.8009 106.08L79.6036 108.002C80.1124 107.546 80.4556 107.182 80.6335 106.91C80.8597 106.576 80.9184 106.279 80.8097 106.019L80.5356 105.363C80.4285 105.107 80.2467 105.032 79.9902 105.138L79.0252 105.537C78.7686 105.643 78.6939 105.824 78.8009 106.08Z" fill="#ECECEC"/>
<path d="M67.862 116.847C68.167 116.783 68.2904 116.604 68.2321 116.311L68.204 116.179L66.3578 107.539C66.2953 107.247 66.1094 107.133 65.8002 107.199L67.3735 106.866C67.8582 106.763 68.1443 106.917 68.2318 107.326L69.2332 112.013C69.2823 112.242 69.3946 112.339 69.5701 112.302C69.7038 112.273 69.8221 112.122 69.925 111.847L70.8999 109.204L72.8334 111.231C73.0356 111.442 73.2035 111.533 73.3372 111.505C73.5169 111.467 73.5822 111.333 73.5331 111.103L72.5317 106.417C72.4442 106.007 72.6429 105.751 73.1276 105.649L74.7009 105.316C74.3875 105.382 74.262 105.562 74.3245 105.854L76.2051 114.624C76.2718 114.916 76.4576 115.029 76.7627 114.965L75.1956 115.296C74.9825 115.341 74.8054 115.32 74.6643 115.232C74.6094 115.2 74.4788 115.079 74.2724 114.869C73.8716 114.465 72.9308 113.496 71.4501 111.963L70.0988 115.726C69.9935 116.01 69.9245 116.178 69.8916 116.228C69.7963 116.375 69.6421 116.471 69.429 116.516L67.862 116.847Z" fill="#ECECEC"/>
<path d="M58.663 113.512C58.6506 113.021 58.8648 112.618 59.3056 112.304C58.8496 112.012 58.6154 111.618 58.6029 111.123L58.5477 108.926C58.5352 108.426 58.6749 108.036 58.967 107.756C59.2423 107.492 59.617 107.355 60.091 107.343L64.6256 107.23C64.3096 107.238 64.1556 107.4 64.1635 107.716L64.3876 116.631C64.3955 116.947 64.5575 117.101 64.8734 117.094L60.3388 117.206C59.8648 117.218 59.4837 117.1 59.1955 116.85C58.8897 116.584 58.7306 116.204 58.7182 115.709L58.663 113.512ZM60.5382 113.664L60.5704 114.945C60.5773 115.222 60.7196 115.358 60.9971 115.351L62.0668 115.324C62.3443 115.317 62.4796 115.175 62.4726 114.897L62.4404 113.616C62.4334 113.339 62.2912 113.204 62.0136 113.211L60.944 113.237C60.6665 113.244 60.5312 113.386 60.5382 113.664ZM60.436 109.597L60.4682 110.878C60.4751 111.155 60.6174 111.291 60.8949 111.284L61.9646 111.257C62.2421 111.25 62.3774 111.108 62.3704 110.83L62.3382 109.549C62.3312 109.272 62.189 109.137 61.9114 109.143L60.8418 109.17C60.5643 109.177 60.429 109.319 60.436 109.597Z" fill="#ECECEC"/>
<path d="M48.9771 114.655L49.9342 107.977C50.0832 106.937 50.6779 106.491 51.7182 106.638L54.8201 107.078C55.8604 107.226 56.306 107.82 56.1569 108.86L55.1998 115.538C55.0532 116.561 54.4597 116.999 53.4194 116.851L50.3176 116.411C49.2773 116.264 48.8304 115.678 48.9771 114.655ZM51.6873 108.976L50.9365 114.215C50.8972 114.49 51.0149 114.646 51.2898 114.685L52.9771 114.925C53.252 114.964 53.4091 114.846 53.4485 114.571L54.1993 109.333C54.2387 109.058 54.1209 108.901 53.846 108.862L52.1587 108.623C51.8838 108.584 51.7267 108.701 51.6873 108.976Z" fill="#ECECEC"/>
<path d="M42.1516 105.682C42.304 105.206 42.5643 104.883 42.9326 104.713C43.2795 104.554 43.6789 104.546 44.1308 104.689L48.455 106.059C48.1537 105.964 47.9549 106.066 47.8585 106.367L45.1401 114.861C45.0438 115.162 45.1463 115.361 45.4476 115.456L41.1234 114.086C40.6714 113.943 40.3501 113.707 40.1595 113.377C39.9578 113.027 39.9325 112.615 40.0835 112.144L42.1516 105.682ZM43.7163 106.93L42.0857 112.025C42.001 112.29 42.091 112.464 42.3557 112.548L43.3757 112.871C43.6403 112.955 43.815 112.864 43.8996 112.6L45.5303 107.505C45.6149 107.24 45.5249 107.066 45.2602 106.982L44.2403 106.659C43.9756 106.575 43.8009 106.666 43.7163 106.93Z" fill="#ECECEC"/>
<path d="M34.3299 111.302C34.629 111.439 34.8412 111.372 34.9666 111.1L35.0687 110.879L38.7227 102.955C38.8481 102.684 38.7671 102.482 38.4797 102.351L41.0433 103.523C40.7519 103.39 40.5436 103.459 40.4182 103.731L36.6621 111.876C36.5406 112.149 36.6216 112.35 36.9051 112.48L34.3299 111.302Z" fill="#ECECEC"/>
<path d="M31.6077 98.3698L35.5134 100.764C36.4267 101.325 36.6061 102.052 36.0518 102.945L34.8891 104.817C34.5623 105.343 34.0395 105.566 33.3206 105.485C32.6957 105.341 32.0709 105.198 31.4461 105.054C30.7542 104.93 30.2787 105.076 30.0195 105.493L29.6443 106.097C29.4979 106.333 29.5429 106.524 29.7794 106.669L30.669 107.216C30.9055 107.362 31.097 107.316 31.2435 107.081L31.4158 106.803C31.6254 106.466 31.9388 106.39 32.356 106.576L33.8023 107.466C33.5331 107.3 33.3151 107.351 33.1483 107.62L32.4892 108.681C31.9439 109.559 31.2146 109.718 30.3014 109.156L28.2001 107.864C27.2869 107.303 27.1029 106.583 27.6482 105.705L31.7854 99.0431C31.9544 98.7709 31.8952 98.5465 31.6077 98.3698ZM32.4532 101.574L31.3546 103.343C32.0235 103.489 32.521 103.554 32.8471 103.539C33.2517 103.527 33.5284 103.401 33.6771 103.162L34.0523 102.558C34.1988 102.322 34.1537 102.131 33.9172 101.986L33.0276 101.439C32.7911 101.293 32.5996 101.339 32.4532 101.574Z" fill="#ECECEC"/>
<path d="M86.0692 46.0617C86.5323 37.4051 80.8281 27.2064 80.8281 27.2064L68.5155 46.7093C73.2871 49.6028 76.2967 54.4722 76.8605 59.6939C76.8956 60.0186 76.9212 60.3447 76.9371 60.6717C76.9371 60.6717 77.871 60.9563 79.1036 61.9928C79.1617 61.9529 85.4515 57.6104 86.0692 46.0617Z" fill="#FFF2CC"/>
<path d="M50.3465 46.4506C50.3465 46.4506 50.2194 45.4925 50.4628 43.9751C50.4628 43.9751 43.217 40.1473 32.5197 45.9015C24.0147 50.4763 19.2441 59.5079 19.2441 59.5079L42.0248 60.3114C42.0889 58.31 42.5176 56.2923 43.3477 54.3463C44.7306 51.1044 47.0314 48.5218 49.8373 46.7584C50.0053 46.6529 50.175 46.5502 50.3465 46.4506Z" fill="#FFF2CC"/>
<path d="M51.3727 76.1337C51.3727 76.1337 50.5415 76.7964 48.9606 77.3838C48.9606 77.3838 49.817 87.3346 61.2676 92.7592C69.9968 96.8945 77.8337 95.9775 77.8337 95.9775L67.5497 76.4493C63.1325 78.6138 57.7693 78.9101 52.8093 76.8153C52.3218 76.6095 51.8484 76.3848 51.3894 76.1426C51.3838 76.1396 51.3783 76.1366 51.3727 76.1337Z" fill="#FFF2CC"/>
<path d="M67.5497 76.4493C71.0703 74.7241 73.9899 71.8121 75.6256 67.9778C76.6415 65.5961 77.0561 63.107 76.9371 60.6717C76.9212 60.3447 76.8956 60.0186 76.8605 59.6939C76.2967 54.4722 73.2871 49.6028 68.5155 46.7093C67.7734 46.2593 66.9887 45.857 66.164 45.5087C60.7932 43.2406 54.9498 43.7757 50.3465 46.4506C50.175 46.5502 50.0053 46.6529 49.8373 46.7584C47.0314 48.5218 44.7306 51.1044 43.3477 54.3463C42.5176 56.2923 42.0889 58.31 42.0248 60.3114C41.8197 66.7091 45.3389 72.9407 51.3727 76.1337C51.3783 76.1366 51.3838 76.1396 51.3894 76.1426C51.8484 76.3848 52.3218 76.6095 52.8093 76.8153C57.7693 78.9101 63.1325 78.6138 67.5497 76.4493Z" fill="#FFD65C"/>
<path d="M80.8281 27.2064L81.2106 26.9925L81.1037 26.8014L80.8868 26.7721L80.8281 27.2064ZM59.2525 32.0218L59.4888 32.3909L59.4888 32.3909L59.2525 32.0218ZM50.3465 46.4506L50.5667 46.8296L50.5667 46.8296L50.3465 46.4506ZM19.2441 59.5079L18.8566 59.3032L18.7617 59.4828L18.8374 59.6712L19.2441 59.5079ZM34.5018 75.9613L34.3133 76.357L34.3133 76.357L34.5018 75.9613ZM51.3727 76.1337L51.5777 75.7463L51.5777 75.7463L51.3727 76.1337ZM77.8337 95.9775L77.8847 96.4129L78.0662 96.3916L78.1789 96.2477L77.8337 95.9775ZM84.6096 73.8718L84.1758 73.9343L84.1758 73.9343L84.6096 73.8718ZM86.0692 46.0617L85.6316 46.0383L85.6316 46.0383L86.0692 46.0617ZM78.8544 61.6323C78.6551 61.7697 78.605 62.0426 78.7424 62.2419C78.8798 62.4412 79.1528 62.4913 79.352 62.3539L78.8544 61.6323ZM32.5197 45.9015L32.7273 46.2875L32.7273 46.2875L32.5197 45.9015ZM50.4628 43.9751L50.8956 44.0445L50.9453 43.7343L50.6675 43.5875L50.4628 43.9751ZM61.2676 92.7592L61.0799 93.1552L61.0799 93.1552L61.2676 92.7592ZM48.9606 77.3838L48.808 76.9729L48.4954 77.0891L48.524 77.4214L48.9606 77.3838ZM75.6256 67.9778L76.0287 68.1497L75.6256 67.9778ZM52.8093 76.8153L52.9798 76.4116L52.9798 76.4116L52.8093 76.8153ZM43.3477 54.3463L42.9445 54.1743L42.9445 54.1743L43.3477 54.3463ZM66.164 45.5087L65.9934 45.9125L65.9934 45.9125L66.164 45.5087ZM53.3182 44.8917C53.1504 44.7173 52.8729 44.712 52.6985 44.8799C52.5241 45.0477 52.5188 45.3252 52.6867 45.4996L53.3182 44.8917ZM57.6042 52.1952L57.1955 52.3536L57.6042 52.1952ZM48.4694 74.4598C48.4183 74.6964 48.5686 74.9296 48.8052 74.9808C49.0418 75.0319 49.2751 74.8816 49.3262 74.645L48.4694 74.4598ZM52.2503 67.3723L52.5939 67.6445L52.2503 67.3723ZM77.0119 63.4922C77.2428 63.4194 77.3709 63.1733 77.2982 62.9424C77.2254 62.7115 76.9793 62.5834 76.7484 62.6561L77.0119 63.4922ZM68.0549 63.9903L68.1229 63.5573L68.0549 63.9903ZM68.5155 46.7093L68.2883 47.084L68.2883 47.084L68.5155 46.7093ZM76.8605 59.6939L76.4247 59.7409L76.4247 59.7409L76.8605 59.6939ZM49.8373 46.7584L49.6041 46.3873L49.6041 46.3873L49.8373 46.7584ZM51.3894 76.1426L51.594 75.7549L51.594 75.7549L51.3894 76.1426ZM80.8281 27.2064C80.8868 26.7721 80.8866 26.7721 80.8864 26.772C80.8863 26.772 80.886 26.772 80.8857 26.772C80.8852 26.7719 80.8845 26.7718 80.8836 26.7717C80.8818 26.7714 80.8793 26.7711 80.8761 26.7707C80.8697 26.7699 80.8606 26.7687 80.8487 26.7672C80.8249 26.7642 80.7901 26.76 80.7448 26.7549C80.6542 26.7446 80.5214 26.7305 80.3495 26.715C80.0059 26.6839 79.5061 26.647 78.8761 26.623C77.6164 26.5751 75.8344 26.5786 73.7377 26.7837C69.548 27.1936 64.0802 28.411 59.0162 31.6526L59.4888 32.3909C64.3984 29.248 69.7184 28.0577 73.8231 27.6561C75.8736 27.4555 77.6153 27.4522 78.8427 27.499C79.4563 27.5224 79.9408 27.5582 80.2706 27.588C80.4355 27.6029 80.5616 27.6163 80.6458 27.6259C80.6879 27.6306 80.7195 27.6345 80.7403 27.6371C80.7506 27.6384 80.7582 27.6393 80.7631 27.64C80.7655 27.6403 80.7673 27.6405 80.7683 27.6406C80.7688 27.6407 80.7692 27.6408 80.7693 27.6408C80.7694 27.6408 80.7694 27.6408 80.7695 27.6408C80.7694 27.6408 80.7693 27.6408 80.8281 27.2064ZM59.0162 31.6526C53.9463 34.8981 51.6576 38.5847 50.6456 41.486C50.1409 42.9331 49.9561 44.1778 49.8982 45.0654C49.8692 45.5092 49.8719 45.8641 49.8822 46.1108C49.8874 46.2341 49.8944 46.3305 49.9004 46.3976C49.9034 46.4311 49.9061 46.4573 49.9082 46.4758C49.9092 46.4851 49.9101 46.4924 49.9107 46.4979C49.911 46.5006 49.9113 46.5028 49.9115 46.5045C49.9117 46.5054 49.9118 46.5061 49.9118 46.5068C49.9119 46.5071 49.9119 46.5074 49.9119 46.5076C49.912 46.5079 49.912 46.5083 50.3465 46.4506C50.781 46.3929 50.781 46.3932 50.7811 46.3934C50.7811 46.3934 50.7811 46.3936 50.7811 46.3937C50.7811 46.3938 50.7811 46.3938 50.7811 46.3937C50.7811 46.3935 50.781 46.3928 50.7808 46.3916C50.7806 46.3893 50.78 46.385 50.7794 46.3789C50.778 46.3666 50.7759 46.3468 50.7735 46.3198C50.7687 46.2659 50.7626 46.1832 50.758 46.0742C50.7489 45.856 50.7461 45.5325 50.7729 45.1225C50.8265 44.3022 50.9982 43.1368 51.4733 41.7747C52.4209 39.0578 54.5852 35.5299 59.4888 32.3909L59.0162 31.6526ZM19.2441 59.5079C18.8374 59.6712 18.8375 59.6714 18.8376 59.6716C18.8376 59.6718 18.8377 59.672 18.8378 59.6723C18.838 59.6728 18.8383 59.6735 18.8387 59.6744C18.8394 59.6761 18.8403 59.6785 18.8416 59.6816C18.8441 59.6878 18.8478 59.6967 18.8525 59.7082C18.8621 59.7313 18.8762 59.765 18.8948 59.8087C18.9321 59.8961 18.9877 60.0237 19.0619 60.1872C19.2104 60.5141 19.4337 60.9847 19.735 61.5644C20.3372 62.7234 21.252 64.3205 22.5046 66.0785C25.0073 69.5906 28.8743 73.7666 34.3133 76.357L34.6903 75.5656C29.4322 73.0613 25.6704 69.0107 23.2185 65.5698C21.9939 63.8512 21.0999 62.2902 20.5128 61.1602C20.2193 60.5954 20.0027 60.1388 19.8601 59.8247C19.7887 59.6676 19.7359 59.5462 19.7011 59.4648C19.6838 59.4241 19.6709 59.3933 19.6626 59.3731C19.6584 59.363 19.6553 59.3555 19.6534 59.3508C19.6524 59.3484 19.6517 59.3467 19.6513 59.3456C19.6511 59.3451 19.6509 59.3448 19.6509 59.3446C19.6508 59.3445 19.6508 59.3445 19.6508 59.3445C19.6508 59.3445 19.6509 59.3446 19.2441 59.5079ZM34.3133 76.357C39.7474 78.9451 44.0623 79.0004 47.0371 78.3873C48.521 78.0814 49.6643 77.6107 50.4406 77.2133C50.8287 77.0146 51.1253 76.8342 51.3272 76.7016C51.4281 76.6352 51.5054 76.5809 51.5586 76.5421C51.5853 76.5227 51.6059 76.5073 51.6204 76.4962C51.6277 76.4906 51.6335 76.4861 51.6377 76.4828C51.6398 76.4812 51.6416 76.4798 51.643 76.4787C51.6436 76.4782 51.6442 76.4777 51.6447 76.4773C51.645 76.4771 51.6453 76.4769 51.6454 76.4768C51.6457 76.4766 51.6459 76.4764 51.3727 76.1337C51.0994 75.791 51.0996 75.7908 51.0998 75.7907C51.0999 75.7907 51.1 75.7905 51.1001 75.7905C51.1002 75.7904 51.1002 75.7904 51.1001 75.7904C51.1 75.7906 51.0995 75.791 51.0986 75.7916C51.0968 75.793 51.0936 75.7955 51.0888 75.7992C51.0794 75.8064 51.064 75.8179 51.0428 75.8333C51.0004 75.8642 50.9346 75.9106 50.8458 75.9689C50.6682 76.0856 50.3989 76.2499 50.0412 76.4331C49.3256 76.7994 48.2568 77.2409 46.8602 77.5287C44.0738 78.1031 39.9533 78.0722 34.6903 75.5656L34.3133 76.357ZM77.8337 95.9775C78.1789 96.2477 78.179 96.2476 78.1791 96.2474C78.1792 96.2473 78.1794 96.247 78.1796 96.2468C78.1799 96.2463 78.1804 96.2457 78.181 96.2449C78.1823 96.2433 78.184 96.2411 78.1862 96.2382C78.1907 96.2324 78.1972 96.2241 78.2056 96.2132C78.2223 96.1913 78.2467 96.1593 78.2782 96.1174C78.3413 96.0335 78.4327 95.9099 78.5481 95.7492C78.7787 95.4278 79.1051 94.9576 79.491 94.3584C80.2625 93.1605 81.2734 91.4443 82.233 89.3689C84.1482 85.2263 85.8785 79.6091 85.0434 73.8094L84.1758 73.9343C84.9765 79.4953 83.319 84.9309 81.4373 89.001C80.4984 91.0319 79.5086 92.7121 78.754 93.8838C78.3769 94.4694 78.0589 94.9275 77.8359 95.2381C77.7245 95.3934 77.6368 95.5118 77.5774 95.5908C77.5477 95.6303 77.5251 95.66 77.5101 95.6795C77.5026 95.6893 77.497 95.6965 77.4934 95.7012C77.4916 95.7035 77.4903 95.7052 77.4895 95.7062C77.4891 95.7067 77.4888 95.7071 77.4887 95.7073C77.4886 95.7074 77.4886 95.7074 77.4886 95.7074C77.4886 95.7074 77.4886 95.7074 77.8337 95.9775ZM80.8281 27.2064C80.4455 27.4204 80.4455 27.4204 80.4455 27.4204C80.4455 27.4204 80.4456 27.4205 80.4456 27.4206C80.4457 27.4208 80.4459 27.4211 80.4462 27.4217C80.4468 27.4227 80.4477 27.4244 80.449 27.4266C80.4515 27.4312 80.4554 27.4381 80.4605 27.4475C80.4709 27.4662 80.4864 27.4945 80.5067 27.5321C80.5475 27.6072 80.6075 27.7191 80.6841 27.8651C80.8372 28.1571 81.056 28.585 81.3175 29.126C81.8407 30.2083 82.5337 31.7414 83.2121 33.5423C84.5732 37.1552 85.8582 41.8009 85.6316 46.0383L86.5069 46.0851C86.7433 41.6658 85.4078 36.884 84.0325 33.2333C83.3428 31.4026 82.6386 29.8449 82.1067 28.7445C81.8407 28.1941 81.6175 27.7576 81.4604 27.4581C81.3819 27.3083 81.3199 27.1926 81.2773 27.1141C81.256 27.0748 81.2395 27.0448 81.2283 27.0244C81.2227 27.0142 81.2183 27.0064 81.2154 27.0011C81.2139 26.9984 81.2128 26.9964 81.2119 26.9949C81.2115 26.9942 81.2112 26.9937 81.211 26.9933C81.2109 26.993 81.2108 26.9929 81.2107 26.9928C81.2106 26.9926 81.2106 26.9925 80.8281 27.2064ZM19.2441 59.5079C19.6317 59.7126 19.6317 59.7127 19.6316 59.7127C19.6317 59.7127 19.6317 59.7127 19.6317 59.7126C19.6318 59.7125 19.6319 59.7122 19.6321 59.7118C19.6326 59.711 19.6333 59.7096 19.6343 59.7077C19.6364 59.7039 19.6396 59.6979 19.6439 59.6898C19.6526 59.6737 19.6659 59.6492 19.6838 59.6167C19.7195 59.5517 19.7736 59.4548 19.8457 59.3293C19.99 59.0783 20.2064 58.7129 20.493 58.2594C21.0662 57.3521 21.9191 56.0937 23.0353 54.6935C25.2708 51.8891 28.5464 48.5364 32.7273 46.2875L32.312 45.5155C27.988 47.8414 24.6258 51.2919 22.3498 54.1471C21.2102 55.5766 20.339 56.862 19.7519 57.7911C19.4583 58.2558 19.2356 58.6318 19.0857 58.8925C19.0108 59.0229 18.9541 59.1245 18.9158 59.1941C18.8967 59.2288 18.8821 59.2556 18.8723 59.2739C18.8673 59.2831 18.8635 59.2901 18.8609 59.295C18.8596 59.2975 18.8586 59.2994 18.8579 59.3008C18.8575 59.3015 18.8572 59.302 18.857 59.3024C18.8569 59.3026 18.8568 59.3028 18.8568 59.3029C18.8567 59.3031 18.8566 59.3032 19.2441 59.5079ZM32.7273 46.2875C37.9992 43.4517 42.4011 42.9859 45.4697 43.2175C47.0063 43.3335 48.2128 43.6247 49.0308 43.8846C49.4398 44.0146 49.7515 44.1366 49.9586 44.225C50.0621 44.2692 50.1395 44.3049 50.1897 44.3289C50.2148 44.3409 50.2332 44.35 50.2446 44.3557C50.2503 44.3586 50.2543 44.3607 50.2565 44.3618C50.2577 44.3624 50.2584 44.3628 50.2586 44.3629C50.2587 44.363 50.2588 44.363 50.2587 44.3629C50.2586 44.3629 50.2585 44.3628 50.2585 44.3628C50.2583 44.3627 50.2581 44.3626 50.4628 43.9751C50.6675 43.5875 50.6673 43.5874 50.667 43.5872C50.6668 43.5872 50.6665 43.587 50.6663 43.5869C50.6657 43.5866 50.6651 43.5863 50.6643 43.5859C50.6628 43.5851 50.6609 43.5841 50.6585 43.5828C50.6537 43.5803 50.6471 43.577 50.6388 43.5728C50.6221 43.5644 50.5985 43.5527 50.5679 43.5381C50.5068 43.5089 50.418 43.468 50.3025 43.4187C50.0716 43.3202 49.7337 43.1882 49.2962 43.0492C48.4214 42.7712 47.1478 42.4651 45.5357 42.3434C42.3072 42.0997 37.7374 42.5971 32.312 45.5155L32.7273 46.2875ZM77.8337 95.9775C77.7828 95.5422 77.7829 95.5422 77.783 95.5422C77.783 95.5422 77.783 95.5422 77.783 95.5422C77.783 95.5422 77.7828 95.5422 77.7825 95.5422C77.7819 95.5423 77.7808 95.5424 77.7793 95.5426C77.7763 95.5429 77.7713 95.5435 77.7645 95.5442C77.751 95.5457 77.73 95.5478 77.7018 95.5505C77.6454 95.5559 77.5602 95.5635 77.4478 95.5717C77.2232 95.5882 76.8901 95.6075 76.4621 95.618C75.606 95.639 74.3711 95.6248 72.8653 95.4828C69.8526 95.1986 65.7632 94.4039 61.4552 92.3631L61.0799 93.1552C65.5012 95.2498 69.6948 96.0642 72.783 96.3555C74.3276 96.5011 75.5975 96.5161 76.4836 96.4944C76.9267 96.4835 77.2741 96.4635 77.5121 96.446C77.6311 96.4372 77.7228 96.4291 77.7854 96.4231C77.8168 96.4201 77.8408 96.4176 77.8575 96.4159C77.8658 96.415 77.8722 96.4143 77.8767 96.4138C77.879 96.4135 77.8808 96.4133 77.8821 96.4131C77.8828 96.4131 77.8834 96.413 77.8838 96.413C77.884 96.4129 77.8842 96.4129 77.8843 96.4129C77.8845 96.4129 77.8847 96.4129 77.8337 95.9775ZM61.4552 92.3631C55.8272 89.6968 52.8162 85.9273 51.209 82.8351C50.4043 81.2868 49.9504 79.9058 49.6981 78.9152C49.572 78.42 49.4963 78.0229 49.4525 77.7519C49.4305 77.6164 49.4165 77.5125 49.4081 77.4437C49.4039 77.4093 49.4011 77.3837 49.3994 77.3673C49.3985 77.3591 49.398 77.3532 49.3976 77.3497C49.3975 77.3479 49.3974 77.3467 49.3973 77.3462C49.3973 77.3459 49.3973 77.3457 49.3973 77.3457C49.3973 77.3457 49.3973 77.3459 49.3973 77.3459C49.3973 77.346 49.3973 77.3462 48.9606 77.3838C48.524 77.4214 48.524 77.4216 48.524 77.422C48.524 77.4221 48.5241 77.4225 48.5241 77.4228C48.5241 77.4234 48.5242 77.4241 48.5243 77.4251C48.5245 77.4269 48.5247 77.4293 48.525 77.4324C48.5255 77.4385 48.5264 77.4469 48.5275 77.4577C48.5297 77.4793 48.5331 77.5102 48.538 77.55C48.5477 77.6296 48.5633 77.7448 48.5871 77.892C48.6348 78.1864 48.7155 78.6091 48.8486 79.1315C49.1147 80.1762 49.5906 81.622 50.4312 83.2394C52.1149 86.4788 55.2574 90.3969 61.0799 93.1552L61.4552 92.3631ZM75.2224 67.8058C71.634 76.2179 61.6817 80.0866 52.9798 76.4116L52.6388 77.2191C61.7634 81.0726 72.2415 77.0278 76.0287 68.1497L75.2224 67.8058ZM53.0025 45.1956C52.6867 45.4996 52.6866 45.4995 52.6866 45.4995C52.6866 45.4995 52.6866 45.4995 52.6866 45.4995C52.6866 45.4996 52.6867 45.4996 52.6868 45.4998C52.6871 45.5 52.6875 45.5005 52.6882 45.5011C52.6894 45.5024 52.6914 45.5045 52.6941 45.5074C52.6996 45.5132 52.708 45.522 52.7192 45.5339C52.7416 45.5577 52.7751 45.5935 52.8185 45.6408C52.9054 45.7353 53.032 45.8752 53.1887 46.0551C53.5023 46.415 53.936 46.9339 54.414 47.5671C55.3733 48.8379 56.497 50.5508 57.1955 52.3536L58.0129 52.0369C57.2727 50.1266 56.0956 48.3398 55.1137 47.039C54.6211 46.3865 54.1741 45.8516 53.8496 45.4793C53.6873 45.293 53.5555 45.1472 53.4638 45.0475C53.4179 44.9976 53.3821 44.9592 53.3574 44.933C53.3451 44.9199 53.3356 44.9099 53.329 44.903C53.3257 44.8995 53.3231 44.8968 53.3214 44.895C53.3205 44.894 53.3197 44.8933 53.3192 44.8927C53.319 44.8925 53.3188 44.8922 53.3186 44.8921C53.3185 44.892 53.3184 44.8919 53.3184 44.8919C53.3183 44.8918 53.3182 44.8917 53.0025 45.1956ZM57.1955 52.3536C57.8976 54.1656 58.3355 56.3406 58.5976 58.0771C58.7282 58.9424 58.8143 59.693 58.8677 60.2267C58.8944 60.4934 58.9129 60.7058 58.9247 60.851C58.9306 60.9236 58.9348 60.9794 58.9375 61.0168C58.9389 61.0354 58.9399 61.0495 58.9405 61.0588C58.9409 61.0634 58.9411 61.0669 58.9412 61.0691C58.9413 61.0702 58.9414 61.071 58.9414 61.0715C58.9414 61.0717 58.9414 61.0719 58.9414 61.072C58.9414 61.072 58.9414 61.072 58.9414 61.0721C58.9414 61.0721 58.9414 61.072 59.3788 61.0434C59.8161 61.0148 59.8161 61.0147 59.8161 61.0146C59.8161 61.0146 59.8161 61.0145 59.8161 61.0144C59.8161 61.0141 59.8161 61.0138 59.8161 61.0135C59.816 61.0127 59.8159 61.0116 59.8158 61.0103C59.8157 61.0075 59.8154 61.0035 59.815 60.9983C59.8143 60.988 59.8132 60.9728 59.8118 60.9529C59.8089 60.9133 59.8045 60.8551 59.7984 60.78C59.7862 60.6299 59.7672 60.4121 59.7399 60.1394C59.6854 59.5942 59.5976 58.8289 59.4644 57.9463C59.1988 56.187 58.7494 53.9379 58.0129 52.0369L57.1955 52.3536ZM48.8978 74.5524C49.3262 74.645 49.3262 74.645 49.3262 74.6451C49.3262 74.6451 49.3262 74.6451 49.3262 74.6451C49.3262 74.6451 49.3262 74.6451 49.3262 74.6449C49.3263 74.6447 49.3264 74.6442 49.3266 74.6434C49.3269 74.642 49.3274 74.6395 49.3282 74.6361C49.3297 74.6293 49.3321 74.6187 49.3354 74.6045C49.3419 74.5761 49.352 74.5331 49.3659 74.4768C49.3936 74.3642 49.4363 74.1983 49.4953 73.9888C49.6134 73.5697 49.7966 72.9772 50.0558 72.2886C50.5756 70.9075 51.3945 69.1583 52.5939 67.6445L51.9068 67.1001C50.6302 68.7114 49.7728 70.5522 49.2354 71.9798C48.9659 72.6956 48.7752 73.3122 48.6516 73.7511C48.5898 73.9706 48.5446 74.1459 48.5147 74.2672C48.4998 74.3279 48.4887 74.3751 48.4812 74.4076C48.4774 74.4238 48.4746 74.4364 48.4727 74.4451C48.4717 74.4495 48.4709 74.4529 48.4704 74.4554C48.4701 74.4566 48.4699 74.4576 48.4697 74.4583C48.4697 74.4587 48.4696 74.459 48.4695 74.4592C48.4695 74.4593 48.4695 74.4595 48.4695 74.4595C48.4694 74.4597 48.4694 74.4598 48.8978 74.5524ZM52.5939 67.6445C53.8013 66.1206 55.5531 64.5627 57.0188 63.3767C57.7487 62.786 58.4021 62.2921 58.8728 61.9459C59.1081 61.7729 59.2975 61.637 59.4277 61.5446C59.4928 61.4984 59.5431 61.4631 59.5769 61.4395C59.5939 61.4276 59.6067 61.4187 59.6151 61.4129C59.6194 61.4099 59.6225 61.4077 59.6246 61.4063C59.6256 61.4056 59.6263 61.4051 59.6268 61.4048C59.627 61.4046 59.6272 61.4045 59.6273 61.4044C59.6274 61.4044 59.6274 61.4044 59.6274 61.4044C59.6274 61.4044 59.6274 61.4044 59.3788 61.0434C59.1302 60.6824 59.1301 60.6825 59.1301 60.6825C59.13 60.6826 59.1299 60.6826 59.1298 60.6827C59.1297 60.6828 59.1294 60.683 59.1291 60.6832C59.1284 60.6837 59.1275 60.6843 59.1262 60.6852C59.1238 60.6869 59.1202 60.6893 59.1156 60.6925C59.1063 60.699 59.0927 60.7085 59.0749 60.7209C59.0394 60.7457 58.9873 60.7822 58.9204 60.8297C58.7865 60.9247 58.5931 61.0636 58.3535 61.2397C57.8745 61.592 57.21 62.0943 56.4674 62.6953C54.9878 63.8925 53.1754 65.499 51.9068 67.1001L52.5939 67.6445ZM76.8801 63.0741C76.7484 62.6561 76.7485 62.6561 76.7485 62.6561C76.7485 62.6561 76.7485 62.6561 76.7485 62.6561C76.7484 62.6561 76.7483 62.6562 76.7481 62.6562C76.7477 62.6563 76.747 62.6566 76.746 62.6569C76.744 62.6575 76.7409 62.6585 76.7366 62.6598C76.7281 62.6624 76.715 62.6665 76.6974 62.6718C76.6624 62.6824 76.6099 62.698 76.5412 62.7179C76.4037 62.7577 76.2019 62.8142 75.9469 62.8802C75.4366 63.0123 74.7149 63.1824 73.8718 63.3333C72.1772 63.6367 70.027 63.8562 68.1229 63.5573L67.987 64.4233C70.0333 64.7445 72.2958 64.506 74.0262 64.1962C74.8956 64.0406 75.6395 63.8653 76.1666 63.7288C76.4303 63.6605 76.6402 63.6018 76.7848 63.56C76.8571 63.539 76.9131 63.5223 76.9514 63.5107C76.9706 63.5049 76.9853 63.5004 76.9955 63.4973C77.0005 63.4957 77.0044 63.4945 77.0072 63.4936C77.0086 63.4932 77.0096 63.4929 77.0104 63.4926C77.0108 63.4925 77.0111 63.4924 77.0114 63.4923C77.0115 63.4923 77.0116 63.4922 77.0117 63.4922C77.0118 63.4922 77.0119 63.4922 76.8801 63.0741ZM68.1229 63.5573C66.1949 63.2547 64.0609 62.5317 62.3959 61.8765C61.5663 61.55 60.8588 61.2427 60.3592 61.0172C60.1095 60.9045 59.9119 60.8123 59.7771 60.7485C59.7098 60.7166 59.6581 60.6918 59.6235 60.6751C59.6063 60.6667 59.5932 60.6604 59.5847 60.6562C59.5804 60.6541 59.5772 60.6526 59.5751 60.6516C59.5741 60.651 59.5734 60.6507 59.5729 60.6505C59.5727 60.6503 59.5725 60.6503 59.5724 60.6502C59.5724 60.6502 59.5724 60.6502 59.5724 60.6502C59.5724 60.6502 59.5724 60.6502 59.3788 61.0434C59.1852 61.4366 59.1852 61.4367 59.1853 61.4367C59.1854 61.4367 59.1855 61.4368 59.1856 61.4368C59.1858 61.4369 59.186 61.4371 59.1864 61.4372C59.1871 61.4376 59.1881 61.438 59.1893 61.4387C59.1918 61.4399 59.1955 61.4417 59.2003 61.444C59.2098 61.4487 59.2238 61.4555 59.2421 61.4643C59.2787 61.482 59.3324 61.5078 59.402 61.5407C59.5411 61.6066 59.7436 61.7011 59.9986 61.8162C60.5084 62.0463 61.2293 62.3594 62.0749 62.6922C63.7603 63.3554 65.9644 64.1059 67.987 64.4233L68.1229 63.5573ZM68.8861 46.9432L81.1987 27.4404L80.4574 26.9725L68.1449 46.4753L68.8861 46.9432ZM19.2287 59.9459L42.0093 60.7494L42.0402 59.8734L19.2596 59.0699L19.2287 59.9459ZM67.1619 76.6535L77.4459 96.1818L78.2216 95.7733L67.9375 76.245L67.1619 76.6535ZM76.9371 60.6717C76.8094 61.091 76.8093 61.091 76.8091 61.0909C76.8091 61.0909 76.809 61.0909 76.8089 61.0909C76.8087 61.0908 76.8086 61.0908 76.8085 61.0907C76.8083 61.0907 76.8081 61.0906 76.8079 61.0906C76.8077 61.0905 76.8076 61.0905 76.8078 61.0905C76.8082 61.0906 76.8095 61.091 76.8116 61.0917C76.8158 61.0931 76.8235 61.0957 76.8345 61.0996C76.8566 61.1073 76.8918 61.1202 76.939 61.1391C77.0335 61.1771 77.1759 61.2392 77.3566 61.3328C77.7178 61.5198 78.232 61.8325 78.8215 62.3282L79.3857 61.6573C78.7426 61.1166 78.1736 60.7687 77.7597 60.5544C77.5528 60.4472 77.3847 60.3735 77.2656 60.3256C77.206 60.3017 77.1586 60.2843 77.1248 60.2724C77.1079 60.2665 77.0943 60.2619 77.0843 60.2586C77.0792 60.257 77.0751 60.2557 77.0719 60.2547C77.0702 60.2541 77.0689 60.2537 77.0677 60.2533C77.0671 60.2532 77.0666 60.253 77.0661 60.2529C77.0659 60.2528 77.0657 60.2527 77.0655 60.2527C77.0653 60.2526 77.0652 60.2526 77.0652 60.2526C77.065 60.2525 77.0649 60.2525 76.9371 60.6717ZM79.3516 62.3542C79.4831 62.2639 85.8797 57.8108 86.5069 46.0851L85.6316 46.0383C85.0233 57.41 78.8402 61.642 78.8556 61.6314L79.3516 62.3542ZM85.6316 46.0383C85.0233 57.4099 78.8403 61.6419 78.8556 61.6314L79.3516 62.3542C79.4832 62.2638 85.8797 57.8107 86.5069 46.0851L85.6316 46.0383ZM78.8556 61.6314C78.8553 61.6316 78.8551 61.6318 78.8549 61.6319C78.8548 61.632 78.8547 61.632 78.8546 61.6321C78.8546 61.6321 78.8545 61.6322 78.8545 61.6322C78.8545 61.6322 78.8544 61.6322 78.8544 61.6322C78.8544 61.6322 78.8544 61.6322 78.8544 61.6322C78.8544 61.6322 78.8544 61.6322 78.8544 61.6322C78.8544 61.6322 78.8544 61.6323 78.8544 61.6323C78.8544 61.6323 78.8544 61.6323 78.8544 61.6323C78.8544 61.6323 78.8544 61.6323 78.8544 61.6323C78.8544 61.6323 78.8544 61.6323 79.1032 61.9931C79.352 62.3539 79.352 62.3539 79.352 62.3539C79.352 62.3539 79.352 62.3539 79.352 62.3539C79.352 62.3539 79.352 62.3539 79.352 62.3539C79.352 62.3539 79.352 62.3539 79.352 62.3539C79.352 62.3539 79.352 62.3539 79.352 62.3539C79.352 62.3539 79.352 62.3539 79.352 62.3539C79.352 62.3539 79.352 62.3539 79.3519 62.3539C79.3519 62.354 79.3519 62.354 79.3519 62.354C79.3518 62.354 79.3518 62.3541 79.3517 62.3541C79.3517 62.3541 79.3516 62.3542 79.3516 62.3542L78.8556 61.6314ZM85.0434 73.8094C84.0373 66.8222 81.3781 63.3327 79.3857 61.6573L78.8215 62.3282C80.6318 63.8504 83.1969 67.1367 84.1758 73.9343L85.0434 73.8094ZM68.2883 47.084C72.943 49.9067 75.8756 54.6549 76.4247 59.7409L77.2963 59.6468C76.7178 54.2895 73.6312 49.2988 68.7428 46.3345L68.2883 47.084ZM76.4247 59.7409C76.4589 60.0571 76.4838 60.3747 76.4994 60.6931L77.3749 60.6504C77.3585 60.3147 77.3322 59.98 77.2963 59.6468L76.4247 59.7409ZM65.9934 45.9125C71.9733 48.4379 75.7902 53.8639 76.4247 59.7409L77.2963 59.6468C76.6279 53.4564 72.6104 47.7554 66.3345 45.105L65.9934 45.9125ZM76.4247 59.7409C76.713 62.4112 76.3445 65.1753 75.2224 67.8058L76.0287 68.1497C77.2115 65.3771 77.6002 62.4617 77.2963 59.6468L76.4247 59.7409ZM50.3465 46.4506C50.781 46.3929 50.781 46.393 50.781 46.3931C50.781 46.3931 50.781 46.3932 50.781 46.3933C50.7811 46.3934 50.7811 46.3935 50.7811 46.3935C50.7811 46.3937 50.7811 46.3938 50.7811 46.3938C50.7811 46.3938 50.7811 46.3937 50.781 46.3933C50.7809 46.3925 50.7807 46.3907 50.7804 46.3881C50.7798 46.3828 50.7788 46.374 50.7775 46.3616C50.775 46.3368 50.7714 46.298 50.7676 46.2459C50.7602 46.1417 50.7523 45.9845 50.7517 45.7805C50.7504 45.3723 50.778 44.7772 50.8956 44.0445L50.03 43.9056C49.9042 44.6903 49.8737 45.333 49.8751 45.7832C49.8758 46.0084 49.8845 46.1856 49.8933 46.3084C49.8977 46.3699 49.9021 46.4178 49.9055 46.4513C49.9073 46.4681 49.9088 46.4813 49.9099 46.4908C49.9104 46.4956 49.9109 46.4994 49.9113 46.5023C49.9115 46.5038 49.9116 46.505 49.9117 46.506C49.9118 46.5065 49.9119 46.5069 49.9119 46.5073C49.9119 46.5075 49.912 46.5077 49.912 46.5078C49.912 46.5079 49.912 46.508 49.912 46.5081C49.912 46.5082 49.912 46.5083 50.3465 46.4506ZM42.4629 60.3254C42.5253 58.3774 42.9424 56.4134 43.7508 54.5183L42.9445 54.1743C42.0927 56.1712 41.6526 58.2426 41.5867 60.2973L42.4629 60.3254ZM51.3727 76.1337C51.0994 75.791 51.0995 75.7909 51.0996 75.7909C51.0996 75.7909 51.0997 75.7908 51.0997 75.7908C51.0998 75.7907 51.0999 75.7906 51.1 75.7906C51.1001 75.7905 51.1001 75.7904 51.1002 75.7904C51.1002 75.7904 51.1 75.7905 51.0997 75.7908C51.099 75.7914 51.0975 75.7925 51.0951 75.7943C51.0905 75.7979 51.0827 75.8039 51.0717 75.8121C51.0497 75.8285 51.0151 75.8537 50.968 75.8865C50.8738 75.952 50.7296 76.0472 50.5368 76.1609C50.1512 76.3884 49.5715 76.6892 48.808 76.9729L49.1133 77.7946C49.9306 77.491 50.557 77.1667 50.9821 76.916C51.1947 76.7906 51.3572 76.6835 51.4682 76.6064C51.5237 76.5678 51.5664 76.5367 51.596 76.5146C51.6109 76.5035 51.6225 76.4947 51.6308 76.4882C51.6349 76.485 51.6383 76.4824 51.6408 76.4804C51.6421 76.4794 51.6431 76.4786 51.644 76.4779C51.6444 76.4776 51.6448 76.4773 51.6451 76.477C51.6453 76.4769 51.6454 76.4768 51.6455 76.4767C51.6456 76.4766 51.6457 76.4766 51.6457 76.4765C51.6458 76.4765 51.6459 76.4764 51.3727 76.1337ZM67.3569 76.0557C63.0508 78.1658 57.8201 78.4557 52.9798 76.4116L52.6388 77.2191C57.7186 79.3644 63.2143 79.0619 67.7426 76.8428L67.3569 76.0557ZM67.7426 76.8428C71.3525 75.0739 74.3497 72.0858 76.0287 68.1497L75.2224 67.8058C73.6302 71.5384 70.7881 74.3743 67.3569 76.0557L67.7426 76.8428ZM76.0287 68.1497C77.0714 65.7055 77.497 63.1502 77.3749 60.6504L76.4994 60.6931C76.6152 63.0638 76.2117 65.4866 75.2224 67.8058L76.0287 68.1497ZM68.7428 46.3345C67.9826 45.8735 67.1789 45.4616 66.3345 45.105L65.9934 45.9125C66.7986 46.2525 67.5643 46.645 68.2883 47.084L68.7428 46.3345ZM66.3345 45.105C60.834 42.782 54.8461 43.329 50.1263 46.0716L50.5667 46.8296C55.0536 44.2223 60.7524 43.6991 65.9934 45.9125L66.3345 45.105ZM50.1263 46.0716C49.9505 46.1738 49.7764 46.2791 49.6041 46.3873L50.0705 47.1295C50.2342 47.0267 50.3996 46.9267 50.5667 46.8296L50.1263 46.0716ZM49.6041 46.3873C46.7259 48.1961 44.364 50.8468 42.9445 54.1743L43.7508 54.5183C45.0972 51.362 47.337 48.8474 50.0705 47.1295L49.6041 46.3873ZM41.5867 60.2973C41.3763 66.8639 44.9872 73.2504 51.1677 76.5211L51.5777 75.7463C45.6906 72.6309 42.2632 66.5543 42.4629 60.3254L41.5867 60.2973ZM51.1676 76.5211C51.1733 76.5241 51.1791 76.5271 51.1849 76.5302L51.594 75.7549C51.5886 75.7521 51.5832 75.7492 51.5777 75.7463L51.1676 76.5211ZM51.1848 76.5302C51.6549 76.7783 52.1397 77.0084 52.6388 77.2191L52.9798 76.4116C52.5039 76.2106 52.0419 75.9913 51.594 75.7549L51.1848 76.5302ZM51.594 75.7549C43.8515 71.668 40.359 62.4694 43.7508 54.5183L42.9445 54.1743C39.3641 62.5678 43.0612 72.2421 51.1848 76.5302L51.594 75.7549ZM50.0705 47.1295C54.6283 44.2651 60.5572 43.6167 65.9934 45.9125L66.3345 45.105C60.6292 42.6955 54.3993 43.3738 49.6041 46.3873L50.0705 47.1295Z" fill="black"/>
</svg>
